<?xml version="1.0" standalone="no"?>
<!DOCTYPE svg PUBLIC "-//W3C//DTD SVG 20010904//EN"
 "http://www.w3.org/TR/2001/REC-SVG-20010904/DTD/svg10.dtd">
<svg version="1.0" xmlns="http://www.w3.org/2000/svg"
 width="512.000000pt" height="512.000000pt" viewBox="0 0 512.000000 512.000000"
 preserveAspectRatio="xMidYMid meet">

<g transform="translate(0.000000,512.000000) scale(0.100000,-0.100000)"
fill="#000000" stroke="none">
<path d="M3525 3564 c-11 -3 -393 -87 -850 -186 -834 -181 -895 -195 -884
-197 4 -1 172 -60 374 -131 l368 -130 856 2 856 3 3 318 2 317 -137 0 c-76 0
-235 2 -353 5 -118 2 -224 2 -235 -1z m-151 -216 l23 -73 87 -3 c48 -1 86 -7
84 -12 -2 -4 -31 -29 -65 -54 -35 -25 -63 -50 -63 -54 0 -5 11 -42 25 -82 14
-40 23 -75 21 -77 -2 -2 -30 16 -62 40 -32 24 -64 46 -70 50 -7 4 -42 -16 -80
-43 -37 -27 -69 -48 -71 -46 -3 3 29 114 43 151 3 7 -23 33 -60 61 -36 26 -66
51 -66 56 0 4 38 8 84 8 l84 0 22 68 c12 37 24 73 26 81 7 22 14 8 38 -71z"/>
<path d="M880 3456 l0 -104 38 8 c20 5 224 50 452 100 228 50 420 92 425 94 6
3 -198 5 -452 5 l-463 1 0 -104z"/>
<path d="M1105 3041 l-220 -47 -3 -37 -3 -37 482 0 c265 0 480 2 478 4 -11 11
-473 166 -492 165 -12 0 -121 -22 -242 -48z"/>
<path d="M872 2698 c3 -98 5 -113 21 -116 14 -3 17 4 17 42 0 46 0 46 35 46
69 0 110 75 65 120 -16 16 -33 20 -80 20 l-61 0 3 -112z m113 42 c0 -33 -2
-35 -37 -38 l-38 -3 0 41 0 41 38 -3 c35 -3 37 -5 37 -38z"/>
<path d="M1162 2698 c3 -98 5 -113 21 -116 14 -3 17 4 17 47 0 47 2 51 24 51
20 0 27 -9 42 -50 13 -35 23 -50 36 -50 22 0 22 -2 -2 55 l-20 47 20 25 c46
58 11 103 -80 103 l-61 0 3 -112z m111 72 c5 -4 7 -18 5 -31 -2 -20 -10 -25
-40 -27 -37 -3 -38 -2 -38 31 0 18 3 37 6 40 8 8 55 -2 67 -13z"/>
<path d="M1460 2695 l0 -116 68 3 c80 4 90 22 14 26 l-53 3 3 37 c3 36 4 37
46 40 23 2 42 7 42 12 0 5 -19 10 -42 12 -40 3 -43 5 -46 36 l-3 32 50 0 c39
0 51 4 51 15 0 12 -14 15 -65 15 l-65 0 0 -115z"/>
<path d="M1730 2695 c0 -94 3 -115 14 -115 11 0 16 15 18 53 l3 52 43 3 c23 2
42 7 42 12 0 5 -19 10 -42 12 -40 3 -43 5 -46 35 -3 32 -3 32 49 35 31 2 54 8
57 16 3 9 -15 12 -67 12 l-71 0 0 -115z"/>
<path d="M2000 2695 l0 -115 65 0 c51 0 65 3 65 15 0 11 -12 15 -51 15 l-50 0
3 38 c3 36 4 37 46 40 56 4 54 22 -3 22 -45 0 -45 0 -45 35 l0 35 50 0 c38 0
50 4 50 15 0 12 -14 15 -65 15 l-65 0 0 -115z"/>
<path d="M2270 2695 c0 -96 3 -115 15 -115 12 0 15 19 15 115 0 96 -3 115 -15
115 -12 0 -15 -19 -15 -115z"/>
<path d="M2430 2795 c0 -10 11 -15 35 -15 l35 0 0 -100 c0 -82 3 -100 15 -100
12 0 15 18 15 100 l0 100 35 0 c24 0 35 5 35 15 0 12 -16 15 -85 15 -69 0 -85
-3 -85 -15z"/>
<path d="M2730 2717 c0 -116 11 -137 76 -137 71 0 84 20 84 135 0 88 -1 95
-20 95 -18 0 -20 -8 -22 -97 l-3 -98 -30 -3 c-44 -5 -55 18 -55 115 0 67 -3
83 -15 83 -12 0 -15 -17 -15 -93z"/>
<path d="M3040 2695 c0 -94 3 -115 14 -115 11 0 16 14 18 48 3 42 6 47 27 47
19 0 27 -9 41 -45 10 -25 25 -46 34 -48 20 -4 20 2 0 54 -15 39 -15 44 0 65 9
13 16 35 16 50 0 41 -28 59 -93 59 l-57 0 0 -115z m90 85 c23 0 36 -36 20 -55
-7 -8 -28 -15 -46 -15 -32 0 -34 2 -34 33 0 38 8 50 28 42 7 -3 22 -5 32 -5z"/>
<path d="M3375 2798 c-8 -21 -65 -210 -65 -214 0 -2 7 -4 16 -4 8 0 20 14 25
30 10 27 16 30 50 30 35 0 41 -3 50 -30 11 -30 39 -42 39 -17 0 7 -15 58 -33
112 -28 82 -38 101 -55 103 -12 2 -24 -3 -27 -10z m44 -72 c15 -59 16 -56 -20
-56 -28 0 -31 3 -25 23 4 12 9 34 12 50 9 39 20 33 33 -17z"/>
<path d="M3820 2694 l0 -116 57 4 c43 4 61 10 74 27 37 46 36 144 -2 182 -14
14 -33 19 -74 19 l-55 0 0 -116z m108 68 c17 -22 15 -103 -4 -130 -10 -14 -25
-22 -45 -22 l-29 0 0 83 c0 46 3 87 6 90 11 10 58 -4 72 -21z"/>
<path d="M4120 2695 l0 -116 68 3 c80 4 90 22 14 26 l-53 3 3 37 c3 36 4 37
46 40 23 2 42 7 42 12 0 5 -19 10 -42 12 -40 3 -43 5 -46 36 l-3 32 50 0 c39
0 51 4 51 15 0 12 -14 15 -65 15 l-65 0 0 -115z"/>
<path d="M910 2463 c0 -5 -9 -132 -20 -283 -11 -151 -20 -299 -20 -327 l0 -53
79 0 79 0 6 83 c3 45 9 129 14 187 l7 105 46 -155 46 -155 69 0 69 0 45 154
45 154 8 -124 c4 -68 10 -152 13 -186 l6 -63 148 0 148 0 19 73 20 72 83 0 83
0 25 -73 24 -72 171 2 172 3 3 128 c3 126 3 127 26 127 21 0 31 -17 81 -130
l58 -130 147 0 147 0 20 73 19 72 84 0 84 0 22 -70 22 -70 243 0 c260 0 294 5
355 51 92 68 88 241 -6 286 l-30 15 26 24 c37 34 54 72 54 119 0 62 -26 107
-79 138 -44 26 -52 27 -218 30 l-173 4 0 -314 c0 -172 -4 -306 -9 -298 -4 8
-48 149 -96 313 l-89 297 -106 0 -106 0 -79 -277 c-43 -153 -81 -284 -85 -291
-4 -8 -25 28 -54 89 l-47 103 32 25 c43 34 69 94 69 164 0 64 -9 87 -48 130
-42 44 -105 57 -284 57 l-158 0 -2 -312 -3 -313 -94 313 -94 312 -106 0 -106
0 -80 -277 c-44 -153 -81 -271 -82 -263 -3 16 -33 502 -33 526 0 12 -18 14
-91 12 l-92 -3 -52 -175 c-29 -96 -56 -188 -59 -205 -8 -30 -15 -9 -112 328
l-17 57 -93 0 c-52 0 -94 -3 -94 -7z m1513 -145 c14 -16 17 -32 13 -57 -8 -52
-31 -71 -88 -71 l-48 0 0 81 0 82 53 -6 c37 -5 57 -13 70 -29z m1022 7 c28
-27 31 -45 14 -78 -16 -30 -28 -37 -66 -37 l-33 0 0 70 0 70 30 0 c19 0 40 -9
55 -25z m-539 -137 c13 -62 24 -116 24 -120 0 -5 -23 -8 -51 -8 -51 0 -51 0
-46 28 3 15 14 71 24 124 9 53 19 95 21 93 2 -2 15 -54 28 -117z m-1062 14
c11 -53 21 -107 24 -119 4 -22 1 -23 -48 -23 -49 0 -52 1 -48 23 3 12 13 66
24 119 10 54 21 98 24 98 3 0 14 -44 24 -98z m1621 -137 c58 -57 12 -145 -75
-145 l-30 0 0 85 0 85 40 0 c30 0 47 -7 65 -25z"/>
<path d="M3827 2463 c-7 -12 -187 -640 -187 -652 0 -7 30 -11 85 -11 l84 0 11
43 c6 23 16 57 21 75 l11 33 81 -3 82 -3 23 -72 24 -73 82 0 c46 0 85 2 88 5
3 3 -33 130 -79 283 -46 152 -91 301 -99 330 l-15 52 -104 0 c-57 0 -106 -3
-108 -7z m153 -390 c0 -14 -85 -19 -94 -5 -2 4 6 59 20 122 13 63 24 117 24
120 2 7 49 -223 50 -237z"/>
<path d="M4100 2460 c0 -5 14 -53 31 -105 l30 -96 37 3 37 3 3 103 3 102 -71
0 c-39 0 -70 -4 -70 -10z"/>
<path d="M4195 1721 c-2 -5 4 -11 15 -14 11 -3 20 -2 20 3 0 12 -28 21 -35 11z"/>
<path d="M870 1638 c0 -68 9 -80 51 -76 l34 3 3 63 c2 36 -1 62 -7 62 -6 0
-11 -26 -13 -57 -3 -50 -6 -58 -23 -58 -17 0 -20 8 -23 58 -4 71 -22 76 -22 5z"/>
<path d="M1077 1683 c-11 -10 -8 -123 3 -123 6 0 10 21 11 48 l0 47 17 -42 c9
-24 19 -43 23 -43 3 0 13 17 22 38 l15 37 1 -37 c2 -68 21 -53 21 16 0 78 -20
90 -39 26 -14 -46 -25 -45 -41 5 -11 34 -20 42 -33 28z"/>
<path d="M1422 1678 c-7 -7 -12 -30 -12 -53 0 -50 13 -65 57 -65 30 0 33 3 33
30 0 25 -4 30 -22 29 -13 0 -17 -3 -10 -6 16 -6 16 -43 -1 -43 -23 0 -37 23
-37 62 0 42 20 59 45 38 17 -14 31 -8 20 9 -9 15 -58 14 -73 -1z"/>
<path d="M1610 1671 c-26 -49 -4 -111 38 -111 16 0 33 5 40 12 13 13 16 75 6
102 -9 24 -71 21 -84 -3z m68 -44 c3 -51 -14 -71 -43 -47 -18 15 -20 71 -3 88
25 25 43 9 46 -41z"/>
<path d="M1800 1683 c0 -28 35 -123 46 -123 7 0 20 24 30 53 9 28 19 58 22 65
2 6 -1 12 -7 12 -6 0 -16 -20 -22 -45 -6 -25 -15 -48 -19 -50 -5 -3 -14 17
-21 45 -7 27 -16 50 -21 50 -4 0 -8 -3 -8 -7z"/>
<path d="M2000 1625 l0 -65 43 2 c36 1 38 2 10 5 -27 4 -33 9 -33 29 0 19 5
24 26 24 14 0 23 4 19 10 -3 6 -15 10 -26 10 -12 0 -19 7 -19 19 0 15 8 21 33
24 28 3 26 4 -10 5 l-43 2 0 -65z"/>
<path d="M2180 1625 c0 -37 4 -65 10 -65 6 0 10 11 10 24 0 37 17 40 35 6 20
-38 38 -40 24 -3 -7 20 -7 34 2 50 17 31 -3 53 -47 53 l-34 0 0 -65z m59 46
c19 -12 6 -41 -19 -41 -15 0 -20 7 -20 25 0 26 14 31 39 16z"/>
<path d="M2370 1625 c0 -37 4 -65 10 -65 6 0 10 21 10 48 l0 47 30 -47 c17
-27 35 -48 40 -48 6 0 10 28 10 65 0 37 -4 65 -10 65 -5 0 -10 -21 -10 -47 l0
-48 -30 48 c-17 26 -35 47 -40 47 -6 0 -10 -28 -10 -65z"/>
<path d="M2579 1663 c-7 -18 -8 -41 -2 -63 7 -32 11 -35 43 -35 28 0 37 5 48
29 10 20 12 38 5 60 -7 27 -14 31 -46 34 -33 3 -38 0 -48 -25z m72 -10 c13
-35 -2 -78 -27 -78 -26 0 -41 46 -26 80 15 33 40 32 53 -2z"/>
<path d="M2890 1626 c0 -37 4 -66 10 -66 6 0 10 11 10 25 0 20 5 25 24 25 30
0 49 22 44 52 -2 19 -10 23 -45 26 l-43 3 0 -65z m68 28 c3 -22 -21 -39 -39
-28 -11 6 -12 38 -2 48 13 13 38 1 41 -20z"/>
<path d="M3092 1678 c-16 -16 -16 -90 0 -106 19 -19 66 -15 78 7 14 27 13 84
-2 99 -7 7 -24 12 -38 12 -14 0 -31 -5 -38 -12z m56 -10 c32 -32 1 -116 -33
-88 -26 22 -14 100 15 100 3 0 11 -5 18 -12z"/>
<path d="M3280 1626 c0 -65 16 -92 22 -39 4 38 26 40 39 4 6 -17 15 -31 20
-31 12 0 11 21 -1 40 -5 9 -5 19 1 27 6 6 9 22 7 35 -2 19 -10 23 -45 26 l-43
3 0 -65z m68 31 c4 -20 -25 -34 -40 -19 -15 15 -1 44 19 40 10 -2 19 -11 21
-21z"/>
<path d="M3585 1671 c3 -10 11 -38 18 -62 19 -66 40 -62 60 10 20 70 20 71 9
71 -5 0 -14 -23 -21 -50 -7 -28 -16 -48 -21 -45 -4 2 -13 25 -19 50 -6 25 -16
45 -22 45 -6 0 -8 -8 -4 -19z"/>
<path d="M3793 1678 c-20 -25 -23 -52 -12 -85 10 -31 14 -34 47 -31 33 3 38 7
46 40 13 53 -4 88 -43 88 -16 0 -33 -6 -38 -12z m59 -23 c15 -34 0 -80 -26
-80 -25 0 -40 43 -27 78 13 34 38 35 53 2z"/>
<path d="M3992 1678 c-16 -16 -16 -90 0 -106 14 -14 68 -16 68 -2 0 5 -7 7
-15 4 -25 -10 -45 16 -45 58 0 41 21 61 43 39 16 -16 27 -14 21 4 -7 18 -55
20 -72 3z"/>
<path d="M4170 1625 l0 -65 43 2 c36 1 38 2 10 5 -27 4 -33 9 -33 29 0 19 5
24 26 24 14 0 23 4 19 10 -3 6 -15 10 -26 10 -32 0 -24 38 9 43 22 3 20 4 -10
6 l-38 1 0 -65z"/>
</g>
</svg>
