<?xml version="1.0" standalone="no"?>
<!DOCTYPE svg PUBLIC "-//W3C//DTD SVG 20010904//EN"
 "http://www.w3.org/TR/2001/REC-SVG-20010904/DTD/svg10.dtd">
<svg version="1.0" xmlns="http://www.w3.org/2000/svg"
 width="638.000000pt" height="903.000000pt" viewBox="0 0 638.000000 903.000000"
 preserveAspectRatio="xMidYMid meet">

<g transform="translate(0.000000,903.000000) scale(0.100000,-0.100000)"
fill="#000000" stroke="none">
<path d="M3236 6968 c-3 -7 -7 -42 -9 -78 l-5 -65 18 55 c10 30 19 65 19 78 1
23 -17 31 -23 10z"/>
<path d="M2740 6891 c0 -16 133 -181 147 -181 3 0 1 6 -5 13 -5 6 -27 44 -47
82 -21 39 -44 78 -53 88 -20 22 -42 22 -42 -2z"/>
<path d="M4837 6718 c-3 -7 -17 -39 -31 -70 -14 -32 -24 -58 -22 -58 9 0 76
110 76 124 0 19 -16 21 -23 4z"/>
<path d="M3791 6629 c-56 -11 -122 -50 -155 -91 -15 -18 -30 -38 -35 -44 -4
-5 -16 -34 -26 -63 -22 -66 -15 -151 16 -214 20 -40 98 -121 107 -112 2 2 11
-2 19 -10 19 -20 79 -35 135 -35 105 0 203 63 256 164 38 73 37 170 -2 249
-57 116 -188 182 -315 156z"/>
<path d="M2325 6591 c-16 -4 -44 -15 -61 -24 -34 -17 -114 -94 -114 -109 0
-19 -2 -24 -15 -38 -32 -35 -26 -230 7 -230 5 0 7 -4 4 -9 -10 -16 74 -100
127 -125 72 -36 131 -42 200 -22 32 9 57 21 57 27 0 6 5 7 10 4 13 -8 112 93
105 106 -4 5 -2 9 4 9 6 0 18 25 27 56 19 67 13 134 -18 200 -21 46 -114 138
-129 128 -5 -3 -9 -1 -9 4 0 24 -129 39 -195 23z"/>
<path d="M3105 6491 c-15 -33 -27 -63 -26 -67 2 -4 -1 -10 -6 -13 -19 -14
-103 -153 -98 -162 4 -5 3 -8 -2 -7 -5 2 -38 -28 -73 -66 -158 -169 -329 -245
-546 -246 -103 0 -226 19 -329 51 -39 12 -74 22 -80 24 -5 1 -36 14 -69 28
-32 15 -63 24 -69 20 -5 -3 -8 -2 -5 3 3 5 -32 27 -77 49 -65 32 -79 36 -66
19 26 -33 104 -125 128 -150 12 -13 20 -24 17 -24 -2 0 13 -24 34 -52 71 -97
229 -370 225 -388 0 -3 7 -21 17 -40 10 -19 29 -69 44 -110 15 -41 29 -82 33
-90 7 -17 9 -23 17 -65 3 -16 -8 11 -25 60 -18 50 -33 92 -35 94 -5 6 -134
-69 -225 -130 -512 -349 -848 -900 -925 -1519 -16 -133 -18 -366 -4 -495 42
-363 178 -717 389 -1012 l45 -63 1702 0 1702 0 49 68 c204 280 334 617 383
991 15 110 15 391 0 506 -37 299 -141 604 -290 851 -137 226 -368 480 -570
626 -157 113 -147 111 -157 30 -4 -37 -8 -177 -8 -312 1 -261 15 -382 70 -593
14 -55 18 -86 11 -84 -6 2 -10 11 -10 20 1 9 -2 15 -6 12 -5 -3 -18 12 -31 32
-53 89 -165 227 -237 293 -134 124 -290 182 -427 160 -64 -10 -165 -47 -165
-60 0 -12 101 -234 111 -244 5 -6 9 -14 9 -18 0 -5 -46 30 -102 76 -140 116
-138 115 -185 78 -40 -31 -138 -132 -212 -217 -24 -27 -36 -37 -26 -22 25 44
52 73 159 181 l99 99 -59 33 c-32 19 -63 32 -68 31 -7 -2 -58 -127 -70 -172
-2 -5 -10 -26 -19 -45 -8 -19 -13 -38 -11 -42 3 -5 1 -8 -4 -8 -11 0 -46 -77
-45 -99 2 -18 -33 -69 -40 -61 -3 3 15 50 40 105 42 93 133 320 133 331 0 7
-50 25 -115 40 l-60 14 52 -5 c89 -9 232 -76 346 -163 31 -24 57 -41 57 -38 0
3 18 -12 41 -35 22 -22 43 -38 46 -36 2 3 -21 63 -53 134 -69 156 -141 343
-188 493 -35 109 -48 173 -22 100 l13 -35 7 40 c12 72 25 238 26 316 0 86 -2
89 -87 89 -38 0 -42 -2 -45 -27 -5 -38 -25 101 -39 262 -14 161 -6 406 20 580
11 72 18 131 17 132 -1 2 -15 -24 -31 -56z m74 -1136 c-2 -20 -37 131 -37 160
-1 17 8 -10 19 -60 10 -49 18 -94 18 -100z m3 -47 c-8 -8 -9 -4 -5 13 4 13 8
18 11 10 2 -7 -1 -18 -6 -23z m15 -30 c-3 -8 -6 -5 -6 6 -1 11 2 17 5 13 3 -3
4 -12 1 -19z m10 -40 c-3 -8 -6 -5 -6 6 -1 11 2 17 5 13 3 -3 4 -12 1 -19z
m-999 -163 c0 -11 -6 3 -14 30 -7 28 -13 55 -13 60 2 17 27 -69 27 -90z m9
-57 c-3 -7 -5 -2 -5 12 0 14 2 19 5 13 2 -7 2 -19 0 -25z m10 -50 c-3 -7 -5
-2 -5 12 0 14 2 19 5 13 2 -7 2 -19 0 -25z m10 -55 c-3 -10 -5 -4 -5 12 0 17
2 24 5 18 2 -7 2 -21 0 -30z m10 -70 c-3 -10 -5 -2 -5 17 0 19 2 27 5 18 2
-10 2 -26 0 -35z m10 -90 c-2 -16 -4 -5 -4 22 0 28 2 40 4 28 2 -13 2 -35 0
-50z m649 -11 c-16 -2 -32 0 -37 5 -5 5 7 7 29 4 34 -5 35 -6 8 -9z m-73 -9
c-7 -2 -19 -2 -25 0 -7 3 -2 5 12 5 14 0 19 -2 13 -5z m-97 -28 c-162 -66
-287 -204 -407 -450 -32 -66 -59 -115 -59 -109 0 18 112 234 152 294 54 81
121 155 175 197 26 20 51 40 54 45 3 6 9 10 12 9 4 0 21 6 39 13 52 21 62 24
78 25 8 0 -12 -10 -44 -24z m-469 -292 c-1 -54 -3 -10 -3 97 0 107 2 151 3 98
2 -54 2 -142 0 -195z m1405 -120 c115 -108 202 -253 152 -253 -25 0 -167 149
-203 211 -56 99 -32 119 51 42z m-1415 -60 c-2 -16 -4 -5 -4 22 0 28 2 40 4
28 2 -13 2 -35 0 -50z m-10 -85 c-2 -13 -4 -5 -4 17 -1 22 1 32 4 23 2 -10 2
-28 0 -40z m646 -51 c-30 -61 -106 -157 -124 -157 -20 0 -7 50 29 108 49 82
101 137 115 123 8 -8 2 -29 -20 -74z m-641 -20 c-20 -51 -38 -76 -29 -37 4 14
7 39 7 55 0 22 3 26 10 15 8 -12 10 -12 16 3 3 10 8 16 10 14 2 -2 -4 -24 -14
-50z m2128 -27 c17 -27 45 -80 60 -117 50 -118 56 -185 16 -170 -32 12 -129
214 -142 295 -6 38 -4 42 14 42 13 0 31 -17 52 -50z m-2150 -153 c0 -75 -41
-206 -67 -214 -25 -9 -18 102 13 195 29 84 54 93 54 19z m-270 -362 c0 -85 2
-84 -80 -55 -73 26 -165 26 -207 0 -47 -28 -62 -85 -37 -137 19 -38 49 -63
214 -186 98 -72 143 -132 161 -213 21 -92 -10 -208 -71 -274 l-28 -30 -276 0
-276 0 0 96 c0 53 3 94 8 92 105 -54 129 -61 197 -62 102 -1 154 35 155 106 0
48 -30 83 -148 171 -186 136 -237 212 -236 347 1 81 17 131 60 187 l25 33 270
0 269 0 0 -75z m492 -302 c4 -427 6 -441 72 -468 45 -19 137 -19 181 -1 69 29
70 36 73 464 l3 382 140 0 139 0 0 -398 c0 -439 -3 -465 -60 -534 l-31 -38
-354 0 -354 0 -31 38 c-57 69 -60 95 -60 534 l0 398 139 0 139 0 4 -377z
m1387 310 c33 -113 251 -892 251 -898 0 -3 -64 -4 -142 -3 l-142 3 -7 30 c-4
17 -10 42 -13 58 l-6 27 -144 0 -144 0 -14 -57 -14 -58 -137 -3 c-107 -2 -137
0 -137 10 0 11 257 893 275 946 3 9 48 12 179 12 l175 0 20 -67z m931 -8 c0
-41 -4 -75 -8 -75 -5 0 -35 9 -67 20 -120 41 -227 17 -248 -57 -20 -69 15
-117 165 -224 183 -131 220 -183 220 -319 0 -91 -25 -160 -76 -209 l-32 -31
-275 2 -274 3 -3 93 c-1 50 0 92 3 92 3 0 28 -11 56 -25 148 -76 309 -39 309
70 0 44 -38 88 -138 158 -173 121 -238 206 -249 325 -7 73 15 152 57 210 l30
42 265 0 265 0 0 -75z m-2500 -974 c-12 -23 -30 -36 -30 -22 0 21 13 41 26 41
11 0 12 -4 4 -19z m-772 -44 c2 -10 -3 -17 -12 -17 -10 0 -16 9 -16 21 0 24
23 21 28 -4z m1002 3 c0 -11 -7 -20 -15 -20 -15 0 -21 21 -8 33 12 13 23 7 23
-13z m415 -90 l0 -104 -42 -3 c-49 -3 -63 13 -63 72 0 49 16 75 45 75 17 0 26
6 27 18 0 9 2 22 3 27 2 6 3 14 4 18 0 5 7 7 14 5 8 -3 12 -34 12 -108z m583
87 c2 -10 -3 -17 -12 -17 -10 0 -16 9 -16 21 0 24 23 21 28 -4z m580 0 c2 -10
-3 -17 -12 -17 -10 0 -16 9 -16 21 0 24 23 21 28 -4z m580 0 c2 -10 -3 -17
-12 -17 -10 0 -16 9 -16 21 0 24 23 21 28 -4z m172 -88 c0 -84 -3 -110 -12
-107 -9 3 -14 37 -16 111 -2 91 0 107 13 107 13 0 15 -18 15 -111z m-3402 79
c3 -13 -3 -18 -22 -18 -35 0 -34 -25 4 -57 52 -43 33 -113 -31 -113 -22 0 -29
5 -29 20 0 17 5 19 25 14 41 -10 45 23 7 55 -37 30 -44 78 -16 106 21 20 58
16 62 -7z m2342 2 c11 -21 -3 -29 -16 -9 -4 8 -9 7 -15 -2 -11 -18 -21 -6 -13
15 8 22 31 20 44 -4z m584 14 c25 -10 19 -34 -8 -34 -39 0 -42 -20 -8 -49 39
-34 48 -65 27 -97 -13 -20 -23 -25 -48 -22 -21 2 -33 9 -35 21 -3 14 2 17 25
15 23 -2 29 1 31 20 2 12 -1 22 -5 22 -19 0 -53 42 -53 65 0 24 31 65 49 65 5
0 16 -3 25 -6z m-2134 -72 c0 -45 5 -75 15 -88 15 -19 15 -19 30 0 10 13 15
43 15 88 0 54 3 68 15 68 12 0 15 -15 15 -78 0 -91 -15 -122 -60 -122 -45 0
-60 31 -60 122 0 63 3 78 15 78 12 0 15 -14 15 -68z m1012 -32 c15 -52 28 -96
28 -97 0 -2 -9 -3 -19 -3 -13 0 -21 8 -23 23 -5 34 -55 37 -68 3 -5 -14 -17
-26 -26 -26 -8 0 -14 6 -11 13 3 6 15 52 28 100 20 75 27 87 43 85 16 -2 26
-23 48 -98z m-1572 70 c0 -11 5 -20 10 -20 6 0 10 -7 10 -15 0 -8 -4 -15 -10
-15 -5 0 -10 -20 -10 -45 0 -33 4 -45 15 -45 8 0 15 -7 15 -15 0 -20 -46 -20
-54 1 -3 9 -6 36 -6 60 0 24 -4 44 -10 44 -5 0 -10 7 -10 15 0 8 4 15 9 15 5
0 11 9 14 20 3 11 10 20 16 20 6 0 11 -9 11 -20z m2000 0 c0 -11 5 -20 10 -20
6 0 10 -7 10 -15 0 -8 -4 -15 -10 -15 -5 0 -10 -20 -10 -45 0 -33 4 -45 15
-45 8 0 15 -7 15 -15 0 -20 -46 -20 -54 1 -3 9 -6 36 -6 60 0 24 -4 44 -10 44
-5 0 -10 7 -10 15 0 8 4 15 9 15 5 0 11 9 14 20 3 11 10 20 16 20 6 0 11 -9
11 -20z m-2160 -95 c0 -60 -3 -75 -15 -75 -12 0 -15 15 -15 75 0 60 3 75 15
75 12 0 15 -15 15 -75z m90 60 c0 -8 -9 -15 -20 -15 -26 0 -25 -8 5 -32 44
-34 28 -88 -27 -88 -20 0 -28 5 -28 18 0 13 7 18 21 18 31 -1 34 19 4 32 -27
13 -34 49 -13 70 17 17 58 15 58 -3z m200 -15 c17 -41 7 -60 -31 -60 -20 0
-29 -4 -26 -12 2 -7 16 -12 31 -11 37 3 32 -31 -5 -35 -37 -4 -59 22 -59 69 0
56 15 79 49 79 22 0 31 -7 41 -30z m188 -47 c2 -60 0 -73 -13 -73 -12 0 -15
13 -15 60 0 47 -3 60 -15 60 -11 0 -15 -13 -15 -54 0 -50 -12 -77 -28 -62 -3
4 -7 30 -8 57 -3 55 -7 65 -23 54 -6 -3 -11 -31 -11 -61 0 -41 -4 -54 -15 -54
-12 0 -15 15 -15 74 l0 74 78 -2 77 -1 3 -72z m110 65 c7 -7 12 -39 12 -73 l0
-61 -40 -1 c-30 -2 -42 3 -50 17 -14 27 4 68 31 72 12 2 24 9 27 17 3 10 -2
13 -22 9 -20 -4 -26 -1 -26 13 0 14 7 19 28 19 15 0 33 -5 40 -12z m350 -65
c2 -60 0 -73 -13 -73 -12 0 -15 13 -15 60 0 44 -4 60 -14 60 -16 0 -26 -30
-26 -82 0 -27 -4 -38 -15 -38 -12 0 -15 15 -15 74 l0 75 48 -2 47 -2 3 -72z
m62 2 c0 -60 -3 -75 -15 -75 -12 0 -15 15 -15 75 0 60 3 75 15 75 12 0 15 -15
15 -75z m104 61 c-3 -8 -14 -16 -25 -19 -17 -5 -20 -12 -17 -44 2 -31 7 -39
26 -41 30 -5 29 -32 -2 -32 -36 0 -56 26 -56 71 0 56 15 79 50 79 21 0 28 -4
24 -14z m116 -5 c15 -30 12 -92 -7 -113 -37 -41 -93 -7 -93 57 0 17 7 41 16
53 20 28 69 30 84 3z m310 0 c5 -11 10 -31 10 -45 0 -23 -4 -26 -36 -26 -24 0
-34 -4 -31 -12 2 -7 16 -13 31 -13 36 1 31 -29 -6 -33 -33 -4 -58 29 -58 76 0
49 16 72 50 72 19 0 33 -7 40 -19z m318 7 c-3 -7 -14 -14 -26 -16 -27 -4 -28
-19 -2 -27 24 -7 37 -51 23 -74 -14 -22 -73 -28 -73 -7 0 10 9 16 25 16 30 0
34 26 5 35 -25 8 -37 50 -20 70 15 19 74 21 68 3z m92 -3 c0 -8 -9 -15 -20
-15 -26 0 -25 -8 6 -36 38 -36 19 -83 -33 -84 -16 0 -23 6 -23 19 0 14 5 18
20 14 13 -3 20 0 20 8 0 8 -9 20 -20 27 -19 12 -28 61 -13 75 13 14 63 7 63
-8z m60 -60 c0 -60 -3 -75 -15 -75 -12 0 -15 15 -15 75 0 60 3 75 15 75 12 0
15 -15 15 -75z m90 60 c0 -8 -9 -15 -20 -15 -26 0 -25 -8 5 -32 44 -34 28 -88
-27 -88 -21 0 -28 5 -28 19 0 14 5 18 19 14 30 -8 34 14 6 33 -27 17 -33 52
-13 72 17 17 58 15 58 -3z m200 -20 c14 -43 7 -55 -31 -55 -20 0 -29 -4 -26
-12 2 -7 16 -12 31 -11 37 3 32 -31 -5 -35 -37 -4 -59 22 -59 69 0 56 15 79
50 79 24 0 30 -6 40 -35z m122 22 c4 -7 8 -40 8 -74 0 -49 -3 -63 -15 -63 -12
0 -15 13 -15 60 0 45 -4 60 -14 60 -18 0 -26 -22 -26 -76 0 -32 -4 -44 -15
-44 -12 0 -15 15 -15 74 l0 74 42 0 c24 1 46 -5 50 -11z m108 -1 c0 -7 -9 -16
-21 -19 -17 -5 -20 -12 -17 -44 2 -31 7 -39 26 -41 34 -5 28 -32 -9 -32 -25 0
-32 6 -45 35 -14 35 -11 78 9 103 13 17 57 16 57 -2z m60 -61 c0 -60 -3 -75
-15 -75 -12 0 -15 15 -15 75 0 60 3 75 15 75 12 0 15 -15 15 -75z m105 64 c4
-6 9 -36 12 -68 4 -42 2 -61 -8 -66 -7 -5 -14 -4 -17 3 -2 8 -8 8 -22 0 -25
-16 -52 7 -48 41 2 18 13 31 38 43 29 13 32 18 18 23 -10 4 -25 5 -33 1 -10
-4 -15 1 -15 14 0 16 7 20 34 20 19 0 38 -5 41 -11z m314 -23 c16 -34 5 -93
-20 -109 -29 -18 -66 0 -79 37 -9 27 -8 42 4 71 14 33 19 36 48 33 25 -2 36
-10 47 -32z m101 20 c0 -7 -9 -16 -21 -19 -17 -5 -20 -12 -17 -44 2 -31 7 -39
26 -41 34 -5 28 -32 -9 -32 -25 0 -32 6 -45 35 -14 35 -11 78 9 103 13 17 57
16 57 -2z m60 -61 c0 -60 -3 -75 -15 -75 -12 0 -15 15 -15 75 0 60 3 75 15 75
12 0 15 -15 15 -75z m104 66 c4 -5 9 -36 12 -69 5 -44 3 -61 -7 -67 -7 -5 -14
-4 -17 3 -2 8 -8 8 -22 0 -25 -16 -52 7 -48 41 2 18 13 31 38 43 29 13 32 18
18 23 -10 4 -25 5 -33 1 -10 -4 -15 1 -15 14 0 16 7 20 34 20 19 0 37 -4 40
-9z"/>
<path d="M3600 4319 c0 -22 82 -139 93 -132 5 3 7 1 3 -5 -3 -6 4 -19 17 -29
13 -10 24 -22 24 -27 1 -11 85 -78 90 -72 9 8 -8 46 -18 41 -5 -3 -7 0 -4 7 7
18 -93 140 -107 132 -7 -5 -8 -2 -4 5 5 8 -5 24 -25 43 -45 39 -69 52 -69 37z"/>
<path d="M2881 4147 c-6 -8 -7 -18 -3 -22 4 -5 2 -5 -4 -2 -18 10 -114 -147
-99 -161 10 -10 46 38 38 51 -3 5 -2 7 4 4 10 -6 73 81 77 106 1 7 5 18 9 25
11 16 -8 16 -22 -1z"/>
<path d="M4320 4080 c0 -52 94 -263 133 -297 20 -18 20 -18 14 29 -7 52 -57
172 -96 232 -26 40 -51 57 -51 36z"/>
<path d="M2203 3913 c-20 -35 -43 -134 -42 -183 l1 -45 14 34 c24 54 45 149
42 184 -3 31 -3 31 -15 10z"/>
<path d="M3596 3217 c-22 -117 -41 -227 -44 -244 l-4 -33 91 0 c50 0 91 1 91
3 0 1 -13 65 -29 142 -16 77 -34 183 -42 235 -7 52 -15 98 -18 102 -3 4 -24
-88 -45 -205z"/>
<path d="M2847 2434 c-10 -10 -8 -56 3 -74 14 -23 32 2 28 40 -3 33 -17 48
-31 34z"/>
<path d="M3177 2449 c-10 -37 -8 -49 8 -49 16 0 18 23 6 54 -7 18 -8 18 -14
-5z"/>
<path d="M1730 2426 c0 -10 9 -16 21 -16 24 0 21 23 -4 28 -10 2 -17 -3 -17
-12z"/>
<path d="M2034 2379 c-3 -6 -2 -15 4 -21 13 -13 32 -2 32 18 0 16 -26 19 -36
3z"/>
<path d="M2654 2416 c-8 -34 4 -68 24 -64 24 5 24 81 0 86 -12 2 -19 -5 -24
-22z"/>
<path d="M2970 2425 c0 -8 9 -15 20 -15 11 0 20 7 20 15 0 8 -9 15 -20 15 -11
0 -20 -7 -20 -15z"/>
<path d="M3730 2426 c0 -10 9 -16 21 -16 24 0 21 23 -4 28 -10 2 -17 -3 -17
-12z"/>
<path d="M4137 2383 c-12 -11 -7 -33 7 -33 12 0 26 20 26 36 0 7 -26 5 -33 -3z"/>
<path d="M4434 2426 c-9 -22 0 -69 13 -73 17 -6 36 35 29 63 -7 26 -33 32 -42
10z"/>
<path d="M4717 2383 c-12 -11 -7 -33 7 -33 12 0 26 20 26 36 0 7 -26 5 -33 -3z"/>
<path d="M1205 6480 c-7 -12 12 -33 58 -65 18 -11 57 -39 87 -60 54 -38 54
-37 -30 48 -82 85 -102 98 -115 77z"/>
<path d="M3120 6352 c0 -11 22 -86 49 -168 87 -260 119 -483 107 -744 -4 -85
-9 -168 -11 -185 -2 -16 -7 -53 -11 -81 -7 -58 10 -119 98 -347 41 -106 53
-127 66 -121 105 43 242 60 327 39 17 -4 38 -7 47 -8 9 -1 15 -3 13 -5 -7 -8
88 -51 99 -45 6 3 8 3 4 -1 -4 -5 27 -35 68 -67 74 -59 208 -216 260 -304 14
-25 28 -44 30 -43 2 2 -4 33 -12 68 -48 203 -65 354 -64 575 0 265 29 475 99
719 11 38 18 73 14 79 -3 6 -1 7 4 4 6 -4 14 5 18 21 15 61 99 264 156 375 33
65 56 123 53 129 -4 6 -3 8 3 5 10 -6 38 40 35 56 -1 4 2 7 7 7 5 0 12 8 15
18 4 9 -30 -20 -76 -64 -46 -45 -110 -101 -143 -124 -33 -24 -63 -48 -66 -53
-3 -5 -8 -8 -10 -6 -5 2 -92 -41 -99 -50 -3 -3 -12 -7 -20 -8 -8 -1 -46 -12
-85 -24 -94 -29 -278 -32 -380 -5 -61 16 -241 91 -255 106 -3 3 -31 23 -64 44
-32 22 -76 54 -99 72 -23 18 -45 30 -51 27 -5 -3 -6 -2 -3 4 6 9 -5 21 -90 96
-30 26 -33 27 -33 9z"/>
</g>
</svg>
